<?xml version="1.0" encoding="utf-8"?>
<!-- Generator: Adobe Illustrator 24.3.0, SVG Export Plug-In . SVG Version: 6.00 Build 0)  -->
<svg version="1.1" id="Layer_1" xmlns="http://www.w3.org/2000/svg" xmlns:xlink="http://www.w3.org/1999/xlink" x="0px" y="0px"
	 viewBox="0 0 1080 1080" style="enable-background:new 0 0 1080 1080;" xml:space="preserve">
<style type="text/css">
	.st0{fill:url(#SVGID_1_);}
	.st1{fill:url(#SVGID_2_);}
	.st2{fill:url(#SVGID_3_);}
	.st3{fill:url(#SVGID_4_);}
	.st4{fill:#5E401A;}
	.st5{fill:url(#SVGID_5_);}
	.st6{fill:#FFFDBE;}
	.st7{fill:#C0983B;}
	.st8{fill:url(#SVGID_6_);}
</style>
<g>
	<linearGradient id="SVGID_1_" gradientUnits="userSpaceOnUse" x1="757.0135" y1="563.6917" x2="978.3792" y2="415.6396">
		<stop  offset="1.537679e-02" style="stop-color:#EEC96D"/>
		<stop  offset="0.2803" style="stop-color:#966B26"/>
		<stop  offset="0.399" style="stop-color:#5E401A"/>
		<stop  offset="0.4654" style="stop-color:#3B2608"/>
	</linearGradient>
	<path class="st0" d="M810.9,543.1c4.6-0.4,8.7-2.2,12.9-3.8c11.3-4.4,26.4-15.8,34.8-22.2c1.6-1.2,2.4-3.2,1.3-5l-11.3-18.8
		c-0.9-1.5-2.9-2.3-4.5-1.4c-6.8,4-14.4,10.8-26,16.6c-2.5,1.2-5.1,2.3-7.8,3c-3.2,0.9-6.3,0.9-9.4,0.4c0,10.3,0,20.5,0,30.8
		C804.5,543.1,808.1,543.3,810.9,543.1z"/>
	<linearGradient id="SVGID_2_" gradientUnits="userSpaceOnUse" x1="518.6874" y1="-150.2346" x2="535.1553" y2="1350.2119">
		<stop  offset="0" style="stop-color:#C79B44"/>
		<stop  offset="0" style="stop-color:#D0A64E"/>
		<stop  offset="0.1753" style="stop-color:#FDDE7F"/>
		<stop  offset="0.3754" style="stop-color:#E7C065"/>
		<stop  offset="0.5728" style="stop-color:#FDDE7F"/>
	</linearGradient>
	<path class="st1" d="M882.7,251.6c-11.2-7.3-23.8-10.3-36.9-11.7c-7.8-0.8-14.3-5.4-20-10.5c-20.1-18.2-41.1-36.7-63.2-51
		c-37.3-24.2-77.4-41-120.1-50.4c-32.2-7.1-64.4-11-96.6-11.8c-15.3-0.4-33.5-0.4-54.4-0.2c-8,0.1-15.9,0.7-23.7,1.7
		c-6.7,0.9-13.9,1.8-21.6,2.8c-50.5,6.8-98.2,21.7-143.2,45.3c-19.3,10.1-38.2,23.1-56.3,36.2c-30,21.7-55.4,47.8-76.1,78.2
		c-30.1,45.5-48.2,93.1-54.5,142.9c-2.3,18-2.3,41-0.1,68.9c0.3,4,1.2,9.9,2.7,17.4c3.4,21,9.2,41.4,17.3,61.1
		c32.3,78,86.3,132.9,162.1,164.5c34.5,14.4,73.1,23.2,110.6,24c41.5,0.9,82.6-1.7,124.1-3.8c28.8-1.5,63-1.4,85.5,19.9
		c5.2,4.9,9.4,10.9,12.1,17.6c3.7,9,4.8,18.9,4.4,28.5c-1.7,34.9-24.8,64.4-52.5,83.7c-16.5,11.5-35.4,19.6-55.1,24
		c-37.4,8.5-77.4,4.3-113.7-7.3c-8.9-2.9-17.7-6.1-26.5-9.5c-2.8-1.1-6.4-2.7-9.3-2.8c2.2,4.1,7.9,7.9,11.6,10.9
		c18,14.5,40.6,24.9,62.5,32.2c17.1,5.7,34.7,9.7,52.6,12.1c35.7,4.7,72.3,2.6,107.2-6.3c17.5-4.5,34.4-10.6,50.5-18.7
		c42.5-21.5,74.8-54.4,97.1-98.7c19.9-39.6,22.8-89.5,13.5-131.8c-5.4-24.5-15.6-47.2-30.7-68.1c-23.4-31.5-53.6-55-90.7-70.2
		c-11.8-4.9-24.1-8.5-36.9-11c-27-5.3-54.5-6.9-81.9-8.3c-27.2-1.4-54.1-0.8-81.2-5c-12.6-2-25.1-4.6-37.4-7.8
		c-22.2-5.8-40.7-14.4-55.5-25.9c-19.9-15.5-33.1-39.6-29.6-65.3c3-22,12.5-41.1,28.4-57.4c11.8-11.5,25.3-20,40.6-25.4
		c-0.5,4.1-2,9.9-4.5,17.4c-1.4,4.4-2.5,9.6-3.2,15.7c-1.8,16.3,3.2,33,11.8,46.8c12.9,20.8,37.1,32.4,60.2,37.7
		c8.9,2,21.3,3,37.3,2.9c20-0.2,39.4-0.2,57.9-0.1c14.5,0.1,25.5,0.7,33.1,1.8c22,3.2,47.6,9.4,77.1,18.7
		c13.2,4.2,26.5,8.3,39.7,12.5c10.2,3.2,20.5,6.1,30.7,9.4c18.9,6.2,37.8,12.5,57.7,14.9c1.7,0.2,3.6,0.4,5.4,0.6
		c0-10.3,0-20.5,0-30.8c-2.2-0.3-4.3-0.9-6.4-1.5c-6-1.8-12-3.5-18-5.2c-8.8-2.5-17.6-5-26.3-7.9c-19.9-6.5-39.9-12.9-59.8-19.5
		c-22.1-7.3-44.5-13.8-67.2-19.2c-12.9-3.1-26.8-5.1-39.3-5.2c-29.7-0.2-60.1-0.3-91.1-0.3c-18.4,0-34.9-4.9-49.7-14.7
		c-22.7-15.1-25.8-41.5-14.1-65c-2.9-1.8,40.3-53.5,44.6-57.9c16.3-16.8,35.7-31.3,58-39.2c11.1-3.9,22.6-5.4,34.2-7
		c27.3-3.8,55-7.9,82.6-8c1.4,0,2.8,0,4.2,0c6.7,0.1,14.2-0.3,20.7,1.2c6.4,1.5,12.3,4.6,17.8,8.1c1,0.6,2,0.9,3.2,0.9
		c12.9-0.5,26-1.2,39.3-1.9c20.7-1.2,49.2-1.4,85.6-0.8c12.4,0.2,23.7,0.9,33,4.6c32.4,12.9,43.8,46,43.8,46s-3.6-1-9.3-1.5
		c-30.5-2.4-56.3-0.8-78.6,6c-16,4.8-31.9,9.9-47.6,15.1c-24.2,8-49.1,18.5-72.8,28.2c-6.6,2.7-13.1,5.7-20,7.7
		c-3.3,1-6.7,1.8-10.1,1.8c-4.1,0-8.1-1.8-11.9-3.4c-9-3.6-17.6-8.6-25.6-14.2c-1-0.7-2.1-1.5-3.1-2.2c-0.6-0.4-2.6-2-2.6-2
		s-1.2,1-1.5,1.3c-1.8,1.6-3.5,3.2-5.3,4.8c-2.9,2.7-5.9,5.3-8.8,8c0.2,0.2,0.3,0.3,0.5,0.4c13.3,12.2,25.8,20.7,33.2,24.1
		c13.6,6.1,28.8,11.1,42.9,7.6c13.3-3.4,26.1-7.3,38.2-11.9c39.9-15,80.1-29.5,121.6-38.9c6.8-1.5,13.8-2.8,20.9-3.6
		c14.4-1.7,30.1-2.7,40.4,3.8c21,13.1,25.6,67,25.6,67l4-10.7C946,352.3,934.5,285.2,882.7,251.6z M519.7,152.3
		c49,0,83.9,6.1,83.9,6.1s-46.6,8.8-79.8,23.7c0,0-21.1-7.9-28-10.5c-9.9-3.7-49.6-15.7-49.6-15.7
		C461.5,154.3,485.3,152.3,519.7,152.3z M311.4,202.8c30.3-18.2,63.7-30.4,98.2-37.5c1.8-0.4,3.5-0.3,5.2,0.1
		c10.2,2.6,21.4,5.9,33.4,10c2.6,0.9,2.7,2,0.1,3.1c-3,1.4-5.8,3.1-8.6,5.1c-19.7,14.6-35,32.2-45.8,52.7c-1.9,3.6-5.2,3.6-8.8,2.8
		c-16.4-4-33.3-4.8-50.1-5.5c-11.5-0.5-23-0.3-34.6-0.1c-11.5,0.2-30.9-0.1-31-0.1C284.2,222,295.7,212.3,311.4,202.8z M183.5,335.6
		c3.5-7.1,7.3-14.3,11.6-21.5c7.6-12.9,17.5-24.2,27.2-35.4c3.3-3.8,6.7-7.6,10.5-11c0.2-0.2,0.5-0.4,0.7-0.6
		c8.8-7.4,17.7-9.1,30.8-11.1c18.6-2.8,56.5-3.8,56.5-4.1c0,0-17.8,42.1-18,87.5l-0.3,11.1c0,1.4,0.3,3.7-1.7,4.2
		c-18.3,4.7-36.2,11-53,19.7c-7.3,3.7-14.4,7.9-21.1,12.4c-6.2,4.2-12.6,8.7-17.8,14.2c-1.1,1.2-1.9,1.4-2.9,0
		c-10.2-14.9-18.2-31.2-24.3-48.7C179.5,345.8,180.7,341.7,183.5,335.6z M292.2,458.9c0,0.7-0.5,1-1.2,1c-0.4,0-0.8-0.2-1.2-0.4
		c-19-8.1-37.1-16.2-53.9-28.7c-0.7-0.5-1.5-1.1-2.2-1.6c-4.4-3.4-8.6-7.2-12.4-11.3l-1.2-1.2c13.7-13.1,31.2-24.9,48.7-32.2
		c9.3-3.9,18.9-7.1,28.6-9.5c4.9-1.2,9.8-2.3,14.7-3.2c3.5-0.6,7.3-1.2,10.7,0.1c0,0,0.4,0.2,0.4,0.2c-11,15.8-22.2,33.3-27.6,51.9
		c-1.6,5.5-2.9,11.3-3.3,17C291.9,446.8,292.4,452.9,292.2,458.9z M155.3,480.5c-0.7,2.3-1.6,4.5-2.6,6.7l-0.1,0.3
		c-1.1-2.7-1.1-5.6-1.2-8.4c-0.2-3.4-0.2-6.8-0.3-10.2c-0.2-3.5-0.4-7.1-0.5-10.6c-0.1-1.7-0.1-3.5-0.1-5.2c0-0.2,0-0.5,0-0.7
		c-0.1-5.4-0.1-11,0.5-16.4c1.2-12.9,3.7-25.6,7.5-38c1.7-5.4,3.6-10.8,5.8-16c1.3-3,2.6-6,4-8.9c0.3-0.5,1-0.5,1.3,0
		c6,12.7,13.1,24.7,21.3,36l3.6,5.1c0.2,0.2-5.9,7-6.4,7.7c-2,2.5-3.9,5-5.8,7.6c-3.5,4.9-6.9,9.9-10,15.1
		C165.2,455.9,159.5,467.8,155.3,480.5C155.3,480.5,155.3,480.5,155.3,480.5z M164.2,511.1c-0.2-6,3.2-12.4,5.2-17.9
		c6.1-17.5,14.3-34.3,25-49.4c3-4.3,5.7-9.1,10.3-11.9c0.8-0.5,1.7-1,2.7-0.9c1.1,0.1,2,0.9,2.8,1.6c19,17,40.2,31.6,64.5,39.8
		c2.5,0.8,4.8,1.6,7.1,2.9c3,1.8,0.9,4.7-0.9,6.5c-1.6,1.6-3.3,3.2-4.9,4.9c-1.5,1.7-2.9,3.6-4.1,5.5c-2.7,4-5,8.2-7.2,12.5
		c-2.2,4.4-4.1,8.9-5.9,13.4c-4.6,11.5-7.9,23.9-8,36.3c-0.1,11.7-43.8-11.7-47.2-13.6c-13.9-8-26.3-17.9-38.8-27.8
		C164.4,512.5,164.2,511.9,164.2,511.1z M270.1,678.9c-0.1,0.9-1.2,1.4-1.9,0.8c-37.4-25.9-65.5-60.4-87.5-102
		c-6.2-11.8-10.7-23.9-13.3-36.2c-0.9-4,0.2-4.6,3.2-1.8c22,20.8,49.5,30.9,79,37.8c0.9,0.2,1.5,1.1,1.5,2c-0.4,6.2-0.2,12.6,0.5,19
		c3,26.5,7.6,52.5,18,76.1C270.1,676,270.3,677.4,270.1,678.9z M493,721.2c-12.6,2.4-38.1,3.7-38.1,3.7s-25.8,0.7-36-2.4
		c-9.4-2.9-14.7-12.7-20.2-20.3c-0.4-0.6-0.4-1.5,0.1-2c3.6-3.4,11.5-8.8,17.4-12.8c7.8-5.4,15.2-11.3,22.8-17c2-1.5,5-4.4,7.6-4.5
		c2.4-0.1,3.9,3.3,5.1,4.9c10.1,13.2,20,27.2,32.5,38.2c3.1,2.7,6.3,5.2,9.7,7.6C496.6,718.8,496.8,720.5,493,721.2z M501.6,701.2
		c-7.1-3.9-12.1-10.6-17.2-16.7c-5-6.1-10-12.2-14.9-18.4c-2.8-3.6-10.3-10.8-4.9-15.3c9.9-8.3,19.1-17.5,29.8-24.9
		c5.7-4,12.2-6.8,17.9-1.2l30.3,29.5c1.1,1.3,1,2.5-0.2,3.7c-13.7,12.9-25.6,27.3-36.9,42.4C504.6,701.6,502.9,701.9,501.6,701.2z
		 M571.3,717.8c-0.3,0.1-0.6,0.2-0.9,0.3c-8.9,0.1-44.9-1.3-52.6-2.4c-1.2-0.2-2-1.4-1.6-2.5c0-0.1,0.1-0.2,0.1-0.3
		c10-13.9,23.4-29.4,35.9-39.8c1-0.8,1.8-0.7,2.6,0.3c8.6,12.5,14.7,26,18.1,40.5C573.3,715.5,572.7,717.1,571.3,717.8z
		 M622.2,696.3c-1.4,7.7-3.4,15.2-5.9,22.7c-0.7,2-1.3,4.1-1.9,6.1c-0.4,1.4-1.8,2.2-3.2,1.9c-4.8-1.1-10-1.4-14.4-3.9
		c-3.5-2-5.4-5.8-6.5-9.6c-1.3-4.7-2.7-9.4-4.4-14.1c-3.2-9.3-7.2-18.3-11.8-27c-1.4-2.6-2.8-5.2-4.3-7.8c-1.3-2.3-0.8-5.2,1.3-6.9
		c12.6-10.4,27.3-18.1,42.8-23.4c1.8-0.6,4.2-1.9,6.1-1.6c0.6,0.1,1.1,0.2,1.5,0.6c0.4,0.4,0.7,0.9,0.9,1.4
		c1.7,3.8,2.2,7.8,2.3,11.9c0.1,4.7,0.4,9.4,0.5,14.1C625.3,672.8,624.4,684.7,622.2,696.3z M631,737.3c-1.8-1.5-2.6-3.8-2-6
		l10.5-43.4c0.9-3.9,5.4-5.8,8.8-3.8l29.6,17.2c2.9,1.7,3.8,5.4,2.1,8.3l-23.8,39.6c-1.9,3.2-6.1,3.9-9,1.5L631,737.3z M673.2,810.6
		l-10.2-39c-1.3-5.5-1.3-5.5,2.7-2.4l23.9,19.3c1.1,1,1.1,2.6,0.2,3.7L673.2,810.6z M678.9,855.4c-3.6,3.2-9,6.9-13.4,9.3
		c-0.4,0.2-0.7,0.4-1,0.6c-1.1,0.6-1.5,0.2-1.2-1l8.4-35l0.4,0.8L678.9,855.4z M658.6,900.4c-13.4,4.4-24.1,11.9-36.5,16.8
		c-0.6,0.2-4.2,1.1-4.4,1.2c0.4-0.6,1.2-1.3,1.4-1.5c1.4-1.3,3-2.4,4.4-3.7c4.3-3.8,26.2-19.9,30.5-26.5
		c4.8-7.3,29.6-21.2,29.6-21.2l5.1,12.1C688.6,877.6,665.6,898.2,658.6,900.4z M680.5,819.2l18.6-21.6c8.2,12,12.3,23.3,12.8,33.3
		c0.1,1.6-0.6,3.4-2.1,5.4c-3.4,4.6-15.8,12.9-20.7,15.9L680.5,819.2z M696.2,870.4l-4-8.9l21.1-14.1
		C712.9,849.5,702.2,864.9,696.2,870.4z M737.9,790.6c-2.4,13.2-6.6,25-12.7,35.3c-0.4,0.7-0.9,1.3-1.4,1.8l-0.6,0.7
		c-1.3-13.5-7.9-25.1-13.2-37.1c-0.9-2-0.7-3.9,0.4-5.7l15.4-24.3c0.3-0.5,1.1-0.6,1.5,0C733.6,770.1,740,778.9,737.9,790.6z
		 M700.2,696.8c4.1-17.2,7-28.2,3.3-42.7c-0.3-1,0-1.2,0.9-0.6c3.5,2.5,6.1,5,8,7.6c12.3,17.2,20.8,36.1,25.5,56.6
		c1.1,4.8,1.9,9.8,2.4,14.7c0.4,3.5,0.8,7,1.2,10.5c0.4,3.8,0.8,7.7,1.2,11.5c0.4,3.5,1,6.9,0.9,10.4c0,0.6-0.1,1.3-0.2,1.9
		c0-0.2-0.2-0.5-0.3-0.6c-0.2-0.3-0.3-0.6-0.5-1c-0.6-1-1.3-2-2-3c-0.7-1-1.3-2.1-1.9-3.2c-1.2-2.1-2.4-4.3-3.7-6.5
		c-0.5-0.9-1.1-1.9-1.7-2.8c-5.7-9.2-11.5-18.3-17.9-27c-3.2-4.4-6.6-8.7-10.1-12.9C701.9,705.8,698.8,702.5,700.2,696.8z
		 M693.6,718c1.4,0.8,2.6,1.8,3.7,2.9c7.3,7.3,13.5,13.4,18,23.3c1.3,2.9,1.2,5.8-0.4,8.6c-4.4,7.9-9.9,17.1-16.6,27.6
		c-6.4-6.6-29.6-24.4-29.6-24.4s16.5-26.8,23-37.5C692.3,717.8,692.9,717.6,693.6,718z M654.7,622.1c9-1.4,18,0.5,24.8,6.8
		c7.5,7,9.6,16.5,10.3,26.3c0.4,5.2,0.5,10.5,0.2,15.8c-0.3,5.4-1.4,10.6-2.2,16c-0.1,0.5-0.1,0.9-0.2,1.4c-0.2,1.2-1.5,1.9-2.6,1.2
		c-5.6-3.5-11.2-6.8-16.9-10.2c-6.7-4-13.4-7.8-20.9-10.1c-2.1-0.6-5.2-1.4-5.3-4c-0.2-12.1-1.8-24-4.8-35.8c-0.5-2,0.5-3.6,3-4.8
		C645.1,623.7,649.9,622.8,654.7,622.1z M551.6,589.6c1-0.6,3.8-0.3,5-0.4c1.9-0.1,3.7-0.2,5.6-0.2c3.7-0.1,7.5,0,11.2,0.1
		c10.2,0.4,20.2,1.9,30.1,4.1c1,0.2,2,0.4,3,0.7c11.9,2.6,24.6,5.7,35.2,11.7c0.7,0.4,3,1.6,2.6,2.6c-0.2,0.6-1,0.6-1.6,0.7
		c-5.4,0.8-10.7,1.7-16,2.9c-3.1,0.7-6.3,1.5-9.4,2.5c-0.5,0.1-0.9,0.3-1.3,0.4c-8.9,2.9-17.5,6.8-25.6,11.5
		c-9.8,5.7-19.3,11.8-28.2,18.8c-2.5,2-4.7,1.7-6.7-0.7c-8.7-10.7-18.3-20.9-29-30.4c-2.5-2.2-2.2-6.2,0.6-8L551.6,589.6z
		 M526.7,586.4c0.2,0.1,0.4,0.3,0.5,0.5c0.2,0.3,0.1,0.6-0.2,0.7c-11.5,5.4-23.3,10.7-33.9,18.1c-14.4,10.1-27.4,20.7-39,31.6
		c-1,0.9-2.5,0.8-3.3-0.3c-9-11.7-16.9-24.2-23.5-37.5c-2.1-4.1-4-10.8-5.9-20.1L526.7,586.4z M421.8,624.6c3.6,6.8,16.2,26,16.2,26
		s-31.6,23.3-40.6,29.8c-3.2,2.3-12.2,6.7-12.2,6.7c-4.2-6.1-8.4-12.3-12.4-18.6c-0.2-0.4-21-40.1-21.8-43.3l55.5-28
		C406.5,597.2,417.4,616.1,421.8,624.6z M341.4,555.8l0.5-8.9c5.4,2.5,10.6,5.1,15.6,7.7c14.1,7.4,48.1,20,48.1,20l-59.1,34
		c0,0-2.6-17.6-4.3-31.1C341.3,570.4,341,563.1,341.4,555.8z M335.2,632.3c2.9,7.2,6.1,14.7,9.5,22.7c9.8,22.9,42.7,64.4,42.7,64.4
		s-16.3-0.9-23.8-2.4c-22.9-4.8-42.1-10.6-57.8-17.5c-4.1-1.8-8.3-4.6-10.4-8.6c-11.4-21.3-18-47.5-22-71c-0.2-0.9,0.8-1.7,1.7-1.3
		c18.9,7.3,37.2,12.2,57.7,12.2C333.9,630.6,334.7,631.2,335.2,632.3z M328.9,613.9l-9.8-1c-10.7-1.1-21.1-3.7-31-7.9
		c-3.5-1.4-6.9-3-10.2-4.7c-3.5-1.7-6-3.7-7.5-6c-1.2-1.8-2-4.8-2.3-8.9c-1.6-20.1,1-40,7.7-59c1.8-5,3.8-10,6-14.8
		c2.2-4.6,4.2-9.2,7.5-13.1c1.3-1.6,3.4-4.2,5.8-4.1c2.1,0.1,3.4,2.5,4.3,4.2c1.9,3.5,4,7,6.2,10.4c4.4,6.7,9.2,13.1,14.6,19.1
		c1.4,1.6,3,3.3,3.5,5.4c0.6,2.3-0.6,4.9-1,7.2c-0.5,2.6-0.8,5.2-1,7.9c-0.3,5.2-0.1,10.5,0.2,15.7c0.6,8.8,1.6,17.5,3,26.1
		c0.3,2.2,0.7,4.4,1.1,6.7c0.7,3.8,1.4,7.6,2,11.4L328.9,613.9z M456.7,290.6c-9.7,9.9-19.3,20.1-28.1,31.6
		c-1.1,1.5-2.9,2.3-5.3,2.3c-17.7-0.1-34.2,3.2-49.7,9.9c-12.2,5.3-24.7,11.8-37.7,19.7c-4.1-1.3-6.4-2-9.7-2.5
		c-1.8-0.3-4.4-0.4-4.4-0.4c-1.5-31.2,6.1-70.8,19-97.5c0,0,10.3,1.7,15.8,2.6c0.5,0.1,42.8,5.4,64.3,10.8
		c16.3,4.1,32.1,8.9,45,13.6C465.9,280.6,460.1,287.1,456.7,290.6z M574.4,239.4c-31.3,2.1-59.8,10.7-85.6,25.7
		c-0.7,0.4-1.5,0.6-2.3,0.5c-2.2-0.3-4.2-0.8-6.1-1.5c-22.1-8-44.5-14.5-67.3-19.4c-1.5-0.3-2.2-2.1-1.4-3.4
		c14.5-23.1,33.9-41.8,58.4-56.1c0.7-0.4,1.4-0.5,2.2-0.3c12.7,3.2,26.2,9,38.5,15c15.4,7.6,31.1,15.9,47.3,24.9
		c5.4,3.1,14.2,7.5,17.2,13.1C575.7,238.5,575.2,239.3,574.4,239.4z M738.1,237.1h-2.7l-15.5-0.2l-2.7,0
		c-13.6,0.9-27.3-0.2-40.9-1.1c-18.1-1.1-37.5-2.9-55.5-0.1c-5,0.8-11.6,3-15.9-0.4c-21.1-16.5-39.1-29-61.4-39.5
		c-1-0.5-1-1-0.1-1.5c5-2.9,8.6-4.7,10.6-5.4c30-9.5,58.8-15.4,86.2-17.6c4.6-0.4,9.3,1.2,14,4.7c10.5,7.8,20.8,15.6,30.8,23.1v0
		l7.4-13.8c0,0,0.1,0.1,0.3,0.2l0,0c1.3,0.7,6.6,2.8,7.2,3c5.5,2.3,10.9,4.8,16.3,7.3c5.5,2.6,11,5.2,16.3,8.1
		c5.3,2.9,10.6,5.9,15.6,9.3c5,3.4,9.9,7,14.4,11c0.9,0.8,1.8,1.6,2.7,2.5c3.6,3.4,7,7,10.3,10.6L738.1,237.1z"/>
	<linearGradient id="SVGID_3_" gradientUnits="userSpaceOnUse" x1="684.992" y1="211.15" x2="738.08" y2="211.15">
		<stop  offset="1.537679e-02" style="stop-color:#C0983B"/>
		<stop  offset="0.1634" style="stop-color:#966B26"/>
		<stop  offset="0.6917" style="stop-color:#5E401A"/>
		<stop  offset="0.9169" style="stop-color:#3B2608"/>
	</linearGradient>
	<path class="st2" d="M738.1,237.1h-2.7l-15.5-0.2c-13.2-16.2-20.6-25.1-34.9-37.9v0l7.4-13.8c0,0,0.1,0.1,0.3,0.2l0,0
		C712.5,202.2,721.7,212.8,738.1,237.1z"/>
	<linearGradient id="SVGID_4_" gradientUnits="userSpaceOnUse" x1="478.3518" y1="417.6294" x2="632.0519" y2="315.0725">
		<stop  offset="8.305870e-02" style="stop-color:#3B2608"/>
		<stop  offset="0.3083" style="stop-color:#5E401A"/>
		<stop  offset="0.8366" style="stop-color:#966B26"/>
		<stop  offset="0.9846" style="stop-color:#C0983B"/>
	</linearGradient>
	<path class="st3" d="M598.8,369.2c0.2,0.2-103.7,10-105.3,10.4c1.8-0.8,82.6-36.4,115.1-80.8c0,0-13.5,41.8,5.8,56.3L598.8,369.2z"
		/>
	<path class="st4" d="M853.3,428.9l27.7-45.6c5.7,18.3-2.4,60.2-2.4,60.2C867.7,435.9,853.3,428.9,853.3,428.9z"/>
	<linearGradient id="SVGID_5_" gradientUnits="userSpaceOnUse" x1="743.3942" y1="406.9689" x2="868.8341" y2="471.4888">
		<stop  offset="8.305870e-02" style="stop-color:#C79B44"/>
		<stop  offset="0.2382" style="stop-color:#D0A64E"/>
		<stop  offset="0.3883" style="stop-color:#E7C065"/>
		<stop  offset="0.9846" style="stop-color:#FFFDBE"/>
	</linearGradient>
	<path class="st5" d="M852.7,474.8c-0.3-0.3-0.6-0.7-0.8-1c-18.6-22.1-44-36.6-70.5-47.9c-2.3-1-4.5-1.9-6.8-2.8
		c-12.1-4.9-30.7-11.2-30.7-11.2s3.5,0.1,9.2,0.2c6.3,0.2,15.2,0.6,24.8,1.1c0.7,3,1.5,6,2.4,9c23.4,9.7,46.2,21.5,64.5,38.7
		C848.7,464.5,851.4,469.4,852.7,474.8C852.6,474.7,852.7,474.7,852.7,474.8z"/>
	<path class="st6" d="M904,497.8l76.9,22.1c0,0-3-1.9-7.6-4.9c-11.2-7.4-32-21.2-41-29.1c-15.1-13.1-30.3-26.1-46.6-37.6
		c-19.6-13.8-41.2-25.7-64.8-30.6c-10.5-2.2-27.6-3.6-43-4.5c0.6,3,1.5,6,2.4,9c23.4,9.6,46.2,21.5,64.5,38.6c4,3.7,6.7,8.6,8,13.9
		c0,0,0,0,0,0.1c22.6,27.5,32.2,61.2,37.9,96c0.7,4.4,2.6,12.9,2.6,12.9c1-2.1,1.8-4.2,2.6-6.2c4.5-11.4,6.6-21.2,8-31.5
		c1.9-13.3-3.8-49.4-3.8-49.4L904,497.8z"/>
	<path class="st7" d="M689.8,318.1c0,0.3,0,0.7,0,1c0,0.2,0,0.3,0,0.5c0,0.2,0,0.5-0.1,0.7c0,0.3,0,0.7-0.1,1
		c-1.4,13.7-12.2,24.7-25.8,26.3c-1.2,0.2-2.4,0.2-3.6,0.2c-16.3,0-29.5-13.2-29.5-29.5c0-16.3,13.2-29.5,29.5-29.5c0.5,0,1,0,1.5,0
		C677.3,289.4,689.7,302.3,689.8,318.1z"/>
	<path class="st6" d="M689.8,318.1c0,0.3,0,0.7,0,1c0,0.2,0,0.3,0,0.5c0,0.2,0,0.5-0.1,0.7c0,0.3,0,0.7-0.1,1
		c-1.4,13.7-12.2,24.7-25.8,26.3c-11.8-1.6-21-14.2-21-29.6c0-14.4,8.1-26.5,18.8-29.2C677.3,289.4,689.7,302.3,689.8,318.1z"/>
	<linearGradient id="SVGID_6_" gradientUnits="userSpaceOnUse" x1="606.51" y1="604.04" x2="644.3735" y2="604.04">
		<stop  offset="1.537679e-02" style="stop-color:#C0983B"/>
		<stop  offset="0.1634" style="stop-color:#966B26"/>
		<stop  offset="0.6917" style="stop-color:#5E401A"/>
		<stop  offset="0.9169" style="stop-color:#3B2608"/>
	</linearGradient>
	<path class="st8" d="M644.3,608.2c-0.2,0.6-1,0.6-1.6,0.7c-5.4,0.8-10.7,1.7-16,2.9c-3.1,0.7-6.3,1.5-9.4,2.5
		c-2.8-8.4-7.7-16-10.9-20.4c11.9,2.6,24.6,5.7,35.2,11.7C642.4,605.9,644.7,607.1,644.3,608.2z"/>
</g>
</svg>
